<svg viewBox="-11 0 512 512.00035" xmlns="http://www.w3.org/2000/svg"><path d="m13.851562 347.511719c168.445313 168.449219 456.320313-135.65625 466.996094-147.054688-28.992187-102.972656-123.601562-178.457031-235.847656-178.457031-135.308594 0-245 109.6875-245 245 0 28.039062 4.722656 54.972656 13.394531 80.0625.15625.152344.304688.296875.457031.449219zm0 0" fill="#76c647"/><path d="m92.007812 361.335938c-6.480468-.316407-12.738281.453124-18.609374 2.140624-4.625 1.332032-9.621094-.835937-11.570313-5.238281-5.015625-11.328125-16.347656-19.234375-29.535156-19.234375-7.300781 0-14.035157 2.425782-19.441407 6.507813 14.25 42.152343 39.664063 79.152343 72.710938 107.503906 5.628906-10.5625 16.890625-17.425781 29.121094-17.222656 5.117187.082031 9.496094-3.734375 10.007812-8.820313 1.347656-13.347656 6.636719-25.53125 14.671875-35.390625-9.148437-17.199219-26.875-29.234375-47.355469-30.246093zm0 0" fill="#2e237c"/><path d="m490 267c0-23.917969-3.441406-47.03125-9.832031-68.882812-3.59375-1.375-7.488281-2.132813-11.566407-2.132813-13.226562 0-24.597656 7.929687-29.628906 19.296875-1.957031 4.417969-6.96875 6.59375-11.613281 5.253906-5.886719-1.695312-12.164063-2.464844-18.667969-2.144531-29.078125 1.433594-52.65625 25.019531-54.078125 54.101563-.320312 6.539062.464844 12.851562 2.183594 18.769531 1.347656 4.644531-.78125 9.667969-5.171875 11.699219-6.199219 2.871093-11.335938 7.640624-14.667969 13.5625-2.695312 4.792968-8.957031 6.320312-13.605469 3.382812-10.3125-6.523438-22.535156-10.300781-35.640624-10.300781-31.625 0-58.121094 21.96875-65.058594 51.476562-1.339844 5.695313-7.273438 8.910157-12.84375 7.101563-6.496094-2.105469-13.429688-3.246094-20.628906-3.246094-34.636719 0-63.09375 26.347656-66.488282 60.035156-.511718 5.089844-4.894531 8.902344-10.007812 8.820313-12.300782-.203125-23.621094 6.738281-29.214844 17.402343 43.125 37.847657 99.644531 60.804688 161.53125 60.804688 135.308594 0 245-109.691406 245-245zm0 0" fill="#463fa0"/><path d="m212.347656 504.582031c4.859375-1.601562 7.742188-6.644531 6.554688-11.617187-7.859375-32.933594 10.363281-67.164063 43.078125-78.542969 6.800781-2.367187 13.722656-3.570313 20.550781-3.710937 5.851562-.125 10.402344-5.109376 9.796875-10.929688-3.140625-30.152344 14.667969-59.601562 44.539063-69.992188 12.378906-4.304687 25.160156-4.75 37.046874-1.980468 5.355469 1.25 10.769532-2.25 11.738282-7.660156 1.199218-6.691407 4.484375-12.882813 9.398437-17.628907 3.476563-3.359375 3.839844-8.808593 1.039063-12.75-3.566406-5.023437-6.382813-10.726562-8.230469-17.011719-5.566406-18.949218-.667969-38.847656 11.476563-53.097656-24.628907 5.425782-43.453126 26.945313-44.722657 52.832032-.320312 6.542968.464844 12.855468 2.183594 18.769531 1.351563 4.644531-.78125 9.671875-5.167969 11.703125-6.199218 2.867187-11.339844 7.636718-14.667968 13.5625-2.695313 4.789062-8.957032 6.316406-13.605469 3.378906-10.316407-6.519531-22.535157-10.300781-35.644531-10.300781-31.625 0-58.117188 21.96875-65.058594 51.476562-1.339844 5.699219-7.273438 8.910157-12.839844 7.105469-6.496094-2.109375-13.429688-3.246094-20.628906-3.246094-34.636719 0-63.097656 26.34375-66.488282 60.03125-.511718 5.089844-4.894531 8.902344-10.007812 8.820313-12.304688-.203125-23.621094 6.738281-29.21875 17.402343 33.445312 29.351563 74.949219 49.738282 120.761719 57.417969 2.464843-1.699219 5.1875-3.066406 8.117187-4.03125zm0 0" fill="#3c2b8e"/><path d="m232.011719 316.335938c4.574219 2.640624 7.460937 7.089843 8.273437 11.921874l155.332032-269.042968c-4.5 1.679687-9.671876 1.457031-14.183594-1.035156-4.742188-2.621094-7.65625-7.273438-8.425782-12.316407l-155.460937 269.269531c4.59375-1.714843 9.886719-1.441406 14.464844 1.203126zm0 0" fill="#ffa46d"/><path d="m362.097656 116.242188c0 .382812-.03125.757812-.058594 1.132812l33.578126-58.160156c-9.914063 3.703125-20.929688-2.332032-22.609376-13.351563l-33.257812 57.605469c9.78125-5.769531 22.347656 1.234375 22.347656 12.773438zm0 0" fill="#ff9165"/><path d="m380.371094 60.019531c8.09375 4.472657 18.316406 1.65625 22.960937-6.390625l16.277344-28.195312c4.648437-8.042969 1.976563-18.304688-5.945313-23.082032-8.171874-4.921874-18.984374-1.808593-23.753906 6.453126l-15.828125 27.421874c-4.773437 8.261719-2.0625 19.179688 6.289063 23.792969zm0 0" fill="#ffb874"/><path d="m396.726562 31.707031c-7.332031-4.050781-10.425781-12.8125-8.152343-20.585937l-14.492188 25.105468c-4.773437 8.261719-2.0625 19.179688 6.289063 23.792969 8.09375 4.476563 18.316406 1.65625 22.960937-6.386719l14.507813-25.125c-5.390625 5.601563-14.035156 7.113282-21.113282 3.199219zm0 0" fill="#ffa46d"/><path d="m195.289062 342.710938c-43.183593-29.390626-74.476562-70.449219-92.050781-116.449219-2.429687-6.367188-11.910156-4.664063-11.882812 2.152343.210937 60.148438 28.761719 118.714844 80.199219 155.410157zm0 0" fill="#9af0f9"/><path d="m163.5 317c7.136719 19.6875-13.785156 37.703125-32.132812 28.125 11.210937 14.519531 24.644531 27.613281 40.1875 38.699219l23.738281-41.113281c-11.449219-7.789063-22.050781-16.40625-31.792969-25.710938zm0 0" fill="#15d4f0"/><path d="m374.402344 382.816406c-48.625 7.78125-99.828125 1.210938-146.875-21.492187l-23.738282 41.113281c57.5 26.195312 122.492188 21.640625 174.691407-8.25 5.914062-3.386719 2.652343-12.449219-4.078125-11.371094zm0 0" fill="#9af0f9"/><path d="m247.066406 400.269531c0-12.292969 9.421875-22.386719 21.441406-23.457031-13.894531-3.890625-27.605468-9.035156-40.980468-15.488281l-23.734375 41.113281c16.464843 7.5 33.546875 12.46875 50.765625 15.054688-4.605469-4.300782-7.492188-10.421876-7.492188-17.222657zm0 0" fill="#15d4f0"/><path d="m206.4375 329.78125-5.054688-2.917969c-6.074218-3.507812-13.914062-1.40625-17.421874 4.667969l-26.039063 45.105469c-3.507813 6.074219-1.40625 13.914062 4.667969 17.421875l5.050781 2.917968zm0 0" fill="#15d4f0"/><path d="m180.984375 362.199219c-6.074219-3.507813-8.941406-10.023438-6.367187-14.480469l-16.695313 28.917969c-3.507813 6.074219-1.40625 13.914062 4.667969 17.421875l5.050781 2.917968 18.394531-31.859374zm0 0" fill="#13bbe2"/><path d="m238.203125 348.121094-5.050781-2.914063-38.796875 67.191407 5.054687 2.917968c6.074219 3.507813 13.914063 1.40625 17.421875-4.667968l26.039063-45.101563c3.507812-6.078125 1.40625-13.917969-4.667969-17.425781zm0 0" fill="#15d4f0"/><path d="m218.320312 382.558594-5.050781-2.917969-18.914062 32.757813 5.054687 2.917968c6.074219 3.507813 13.914063 1.40625 17.421875-4.667968l17.914063-31.023438c-2.957032 5.121094-10.347656 6.4375-16.425782 2.933594zm0 0" fill="#13bbe2"/><path d="m162.785156 409.980469-5.394531 9.339843c-3.625 6.28125-1.472656 14.308594 4.804687 17.933594 6.28125 3.625 14.308594 1.476563 17.933594-4.804687l5.394532-9.339844zm0 0" fill="#13bbe2"/><path d="m239.210938 337.898438c4.699218-8.140626 1.910156-18.546876-6.230469-23.246094-8.136719-4.699219-18.546875-1.910156-23.246094 6.226562l-51.078125 78.769532c-2.667969 4.117187-1.339844 9.628906 2.90625 12.082031l23.058594 13.3125c4.246094 2.449219 9.683594.84375 11.910156-3.527344zm0 0" fill="#9af0f9"/><path d="m208.894531 380.816406-21.167969-12.222656c-2.84375-1.640625-4.253906-4.777344-3.859374-7.820312l-25.210938 38.875c-2.667969 4.117187-1.339844 9.628906 2.90625 12.082031l23.058594 13.3125c4.246094 2.453125 9.683594.84375 11.910156-3.527344l21.066406-41.265625c-2.441406 1.859375-5.859375 2.207031-8.703125.566406zm0 0" fill="#15d4f0"/><path d="m253.027344 170.363281c0 38.082031-30.871094 68.949219-68.953125 68.949219s-68.953125-30.867188-68.953125-68.949219 30.871094-68.953125 68.953125-68.953125 68.953125 30.871094 68.953125 68.953125zm0 0" fill="#ffd47c"/><path d="m214.90625 221.933594c-16.265625-2.804688-15.230469-17.121094-15.230469-17.121094l-.820312-6.4375h-32v-65.5625h-7.179688c-11.511719-6.078125-7.441406-17.597656-7.441406-17.597656v-.25c-2.289063.023437-4.554687-.664063-6.460937-1.941406-18.480469 12.367187-30.652344 33.429687-30.652344 57.339843 0 38.078125 30.871094 68.949219 68.953125 68.949219 10.589843 0 20.621093-2.394531 29.589843-6.660156-1.453124-3.570313-.917968-7.648438 1.253907-10.71875-.003907 0-.007813 0-.011719 0zm0 0" fill="#ffb874"/><path d="m224.191406 239.847656c-39.167968 22.613282-89.429687 9.144532-112.042968-30.023437-22.613282-39.167969-9.148438-89.429688 30.019531-112.042969s89.429687-9.144531 112.042969 30.019531c22.613281 39.167969 9.148437 89.433594-30.019532 112.046875zm-71.957031-124.632812c-29.554687 17.066406-39.714844 54.988281-22.652344 84.542968 17.0625 29.554688 54.988281 39.714844 84.542969 22.652344s39.714844-54.988281 22.652344-84.542968c-17.0625-29.550782-54.988282-39.714844-84.542969-22.652344zm0 0" fill="#fff084"/><path d="m224.214844 239.832031c-.171875-.148437-.378906-.261719-.628906-.269531-3.777344-.128906-7.398438-2.164062-9.378907-5.726562-2.121093-3.816407-1.710937-8.488282.699219-11.902344-.261719.15625-.515625.324218-.78125.480468-29.554688 17.0625-67.480469 6.898438-84.542969-22.65625-17.0625-29.550781-6.902343-67.476562 22.652344-84.539062.167969-.097656.335937-.179688.503906-.277344-4.035156.226563-8.09375-1.730468-10.269531-5.363281-2.09375-3.492187-2.046875-7.648437-.273438-10.984375.152344-.28125.152344-.589844.054688-.855469-.027344.015625-.054688.027344-.082031.042969-39.164063 22.613281-52.632813 72.875-30.019531 112.042969 22.613281 39.167969 72.875 52.636719 112.042968 30.023437.007813-.007812.015625-.011718.023438-.015625zm0 0" fill="#ffd47c"/><g fill="#ff9165"><path d="m175.621094 134.148438v-6.851563c0-4.40625-3.570313-7.972656-7.972656-7.972656-4.402344 0-7.972657 3.566406-7.972657 7.972656v6.851563zm0 0"/><path d="m159.675781 203.476562v6.855469c0 4.402344 3.570313 7.972657 7.972657 7.972657 4.402343 0 7.972656-3.570313 7.972656-7.972657v-6.855469zm0 0"/><path d="m191.703125 148.757812c-4.402344 0-7.972656-3.570312-7.972656-7.972656v-13.488281c0-4.40625 3.570312-7.972656 7.972656-7.972656s7.972656 3.566406 7.972656 7.972656v13.488281c0 4.402344-3.570312 7.972656-7.972656 7.972656zm0 0"/><path d="m191.703125 218.304688c-4.402344 0-7.972656-3.570313-7.972656-7.972657v-13.492187c0-4.402344 3.570312-7.972656 7.972656-7.972656s7.972656 3.570312 7.972656 7.972656v13.492187c0 4.402344-3.570312 7.972657-7.972656 7.972657zm0 0"/></g><path d="m215.222656 165.980469c1.945313-3.277344 3.066406-7.101563 3.066406-11.179688 0-12.125-9.863281-21.988281-21.988281-21.988281h-38.691406c-4.402344 0-7.972656 3.570312-7.972656 7.972656s3.570312 7.972656 7.972656 7.972656h38.691406c3.332031 0 6.039063 2.710938 6.039063 6.042969 0 3.328125-2.710938 6.039063-6.039063 6.039063h-28.441406c-4.402344 0-7.972656 3.570312-7.972656 7.972656s3.570312 7.972656 7.972656 7.972656h33.253906c3.332031 0 6.042969 2.710938 6.042969 6.042969 0 3.328125-2.710938 6.039063-6.042969 6.039063h-43.503906c-4.402344 0-7.972656 3.570312-7.972656 7.972656s3.570312 7.972656 7.972656 7.972656h43.503906c12.125 0 21.988281-9.863281 21.988281-21.984375 0-6.757813-3.066406-12.8125-7.878906-16.847656zm0 0" fill="#ffa46d"/><path d="m184.570312 160.839844h-16.710937c-4.402344 0-7.972656 3.570312-7.972656 7.972656s3.570312 7.972656 7.972656 7.972656h16.710937c-4.402343 0-7.972656-3.570312-7.972656-7.972656s3.570313-7.972656 7.972656-7.972656zm0 0" fill="#ff9165"/><path d="m157.609375 148.757812h26.464844c-4.402344 0-7.972657-3.570312-7.972657-7.972656s3.570313-7.972656 7.972657-7.972656h-26.464844c-4.402344 0-7.972656 3.570312-7.972656 7.972656s3.570312 7.972656 7.972656 7.972656zm0 0" fill="#ff9165"/><path d="m176.101562 196.839844c0-4.402344 3.570313-7.972656 7.972657-7.972656h-26.464844c-4.402344 0-7.972656 3.570312-7.972656 7.972656 0 4.40625 3.570312 7.972656 7.972656 7.972656h26.464844c-4.402344 0-7.972657-3.566406-7.972657-7.972656zm0 0" fill="#ff9165"/><path d="m159.675781 147.421875h15.945313v42.785156h-15.945313zm0 0" fill="#ff9165"/><path d="m392.578125 278.835938c-12.726563-22.042969-40.917969-29.59375-62.960937-16.867188-22.042969 12.726562-29.597657 40.914062-16.867188 62.960938 12.726562 22.042968 40.914062 29.59375 62.957031 16.867187 22.046875-12.726563 29.597657-40.914063 16.871094-62.960937zm0 0" fill="#fff084"/><path d="m364.871094 331.46875c-2.875-4.972656-2.417969-10.945312.648437-15.375l-18.726562-32.433594c-5.367188.445313-10.765625-2.148437-13.640625-7.125-3.347656-5.796875-2.183594-12.945312 2.386718-17.429687-2.007812.808593-3.984374 1.757812-5.910156 2.867187-22.046875 12.730469-29.601562 40.917969-16.871094 62.960938 12.726563 22.046875 40.917969 29.597656 62.960938 16.871094 1.925781-1.113282 3.738281-2.347657 5.4375-3.683594-6.164062 1.714844-12.9375-.851563-16.285156-6.652344zm0 0" fill="#ffd47c"/><path d="m372.621094 290.359375c-6.363282-11.023437-20.457032-14.796875-31.480469-8.433594s-14.796875 20.457031-8.433594 31.480469c6.363281 11.019531 20.457031 14.796875 31.480469 8.433594 11.019531-6.363282 14.796875-20.457032 8.433594-31.480469zm0 0" fill="#ffb874"/></svg>